<svg width="32" height="29" viewBox="0 0 32 29" fill="none" xmlns="http://www.w3.org/2000/svg">
<path d="M26.2009 29C25.5531 28.9738 24.9414 28.6948 24.4971 28.2227C24.0528 27.7506 23.8113 27.1232 23.8244 26.475C23.8375 25.8269 24.1042 25.2097 24.5672 24.7559C25.0302 24.3022 25.6527 24.048 26.301 24.048C26.9492 24.048 27.5716 24.3022 28.0346 24.7559C28.4976 25.2097 28.7643 25.8269 28.7774 26.475C28.7905 27.1232 28.549 27.7506 28.1047 28.2227C27.6604 28.6948 27.0487 28.9738 26.4009 29H26.2009ZM6.75291 26.32C6.75291 25.7899 6.91009 25.2718 7.20457 24.8311C7.49905 24.3903 7.91762 24.0468 8.40733 23.844C8.89703 23.6412 9.43592 23.5881 9.95579 23.6915C10.4757 23.7949 10.9532 24.0502 11.328 24.425C11.7028 24.7998 11.9581 25.2773 12.0615 25.7972C12.1649 26.317 12.1118 26.8559 11.9089 27.3456C11.7061 27.8353 11.3626 28.2539 10.9218 28.5483C10.4811 28.8428 9.96301 29 9.43296 29C9.08085 29.0003 8.7321 28.9311 8.40672 28.7966C8.08134 28.662 7.78568 28.4646 7.5366 28.2158C7.28753 27.9669 7.08999 27.6713 6.95518 27.3461C6.82038 27.0208 6.75096 26.6721 6.75096 26.32H6.75291ZM10.553 20.686C10.2935 20.6868 10.0409 20.6024 9.83408 20.4457C9.62724 20.2891 9.47756 20.0689 9.40794 19.819L4.57494 2.36401H1.182C0.868519 2.36401 0.567858 2.23947 0.346191 2.0178C0.124523 1.79614 0 1.49549 0 1.182C0 0.868519 0.124523 0.567873 0.346191 0.346205C0.567858 0.124537 0.868519 5.81268e-06 1.182 5.81268e-06H5.463C5.72249 -0.00080736 5.97503 0.0837201 6.18175 0.240568C6.38847 0.397416 6.53782 0.617883 6.60692 0.868006L11.4399 18.323H24.6179L29.0009 8.27501H14.401C14.2428 8.27961 14.0853 8.25242 13.9378 8.19507C13.7903 8.13771 13.6558 8.05134 13.5423 7.94108C13.4288 7.83082 13.3386 7.69891 13.2769 7.55315C13.2153 7.40739 13.1836 7.25075 13.1836 7.0925C13.1836 6.93426 13.2153 6.77761 13.2769 6.63186C13.3386 6.4861 13.4288 6.35418 13.5423 6.24392C13.6558 6.13366 13.7903 6.0473 13.9378 5.98994C14.0853 5.93259 14.2428 5.9054 14.401 5.91001H30.8139C31.0096 5.90996 31.2022 5.95866 31.3743 6.05172C31.5465 6.14478 31.6927 6.27926 31.7999 6.44301C31.9077 6.60729 31.9733 6.79569 31.9908 6.99145C32.0082 7.1872 31.9771 7.38423 31.9 7.565L26.4949 19.977C26.4025 20.1876 26.2509 20.3668 26.0584 20.4927C25.8659 20.6186 25.6409 20.6858 25.411 20.686H10.553Z" fill="#E8E8E8"/>
</svg>
