<svg width="29" height="29" viewBox="0 0 29 29" fill="none" xmlns="http://www.w3.org/2000/svg">
<path d="M14.4999 19.937C18.9999 19.937 22.6559 15.464 22.6559 9.968C22.6559 4.472 18.9999 0 14.4999 0C13.3631 0.0217413 12.2463 0.303398 11.2351 0.823397C10.2238 1.3434 9.34503 2.08794 8.66598 3C7.1266 4.99573 6.30816 7.45381 6.34397 9.974C6.34397 15.465 9.99996 19.937 14.4999 19.937ZM14.4999 1.813C17.9999 1.813 20.8439 5.472 20.8439 9.969C20.8439 14.466 17.9979 18.125 14.4999 18.125C11.002 18.125 8.15599 14.465 8.15499 9.969C8.15399 5.473 11 1.813 14.4999 1.813ZM20.8439 18.125C20.6035 18.125 20.3729 18.2205 20.2029 18.3905C20.0329 18.5605 19.9374 18.7911 19.9374 19.0315C19.9374 19.2719 20.0329 19.5025 20.2029 19.6725C20.3729 19.8425 20.6035 19.938 20.8439 19.938C22.5259 19.9399 24.1384 20.6088 25.3278 21.7982C26.5171 22.9875 27.186 24.6 27.1879 26.282C27.1873 26.5221 27.0917 26.7523 26.9219 26.9221C26.7521 27.0919 26.522 27.1875 26.2819 27.188H2.71996C2.47984 27.1875 2.24974 27.0919 2.07995 26.9221C1.91015 26.7523 1.81449 26.5221 1.81396 26.282C1.81607 24.6001 2.48516 22.9877 3.67442 21.7985C4.86369 20.6092 6.47605 19.9401 8.15792 19.938C8.39821 19.938 8.62864 19.8425 8.79855 19.6726C8.96845 19.5027 9.06393 19.2723 9.06393 19.032C9.06393 18.7917 8.96845 18.5613 8.79855 18.3914C8.62864 18.2215 8.39821 18.126 8.15792 18.126C5.99539 18.1279 3.922 18.9875 2.39257 20.5164C0.86314 22.0453 0.00264776 24.1185 0 26.281C0.000794064 27.0019 0.287501 27.693 0.797238 28.2028C1.30698 28.7125 1.99811 28.9992 2.71898 29H26.2819C27.0026 28.9989 27.6935 28.7121 28.203 28.2024C28.7125 27.6927 28.9991 27.0017 28.9999 26.281C28.9972 24.1187 28.1371 22.0457 26.6082 20.5168C25.0792 18.9878 23.0062 18.1276 20.8439 18.125Z" fill="#E8E8E8"/>
</svg>
