<svg width="46" height="32" viewBox="0 0 46 32" fill="none" xmlns="http://www.w3.org/2000/svg">
<path d="M30.2874 27.2429H14.8104C14.6032 28.5509 13.9361 29.742 12.929 30.6021C11.922 31.4621 10.6411 31.9346 9.31684 31.9346C7.99253 31.9346 6.71167 31.4621 5.70465 30.6021C4.69763 29.742 4.03053 28.5509 3.82333 27.2429H1.88631C1.39149 27.2397 0.91814 27.0404 0.570026 26.6887C0.221911 26.337 0.0274507 25.8618 0.0293142 25.3669V1.87695C0.0271852 1.38195 0.221516 0.906335 0.56966 0.554443C0.917803 0.202551 1.39132 0.00317363 1.88631 0H27.4374C27.9323 0.00317353 28.4057 0.202522 28.7537 0.554443C29.1017 0.906364 29.2958 1.38204 29.2934 1.87695V3.78198H36.4144C36.4948 3.78164 36.5748 3.79208 36.6524 3.81299C38.9524 4.01299 40.1094 5.2129 41.3294 7.2749L44.8884 13.3689C44.9733 13.5136 45.0181 13.6782 45.0184 13.8459V26.304C45.0195 26.5515 44.9222 26.7892 44.748 26.9651C44.5738 27.141 44.3369 27.2406 44.0894 27.2419H41.2754C41.0682 28.5499 40.4011 29.741 39.3941 30.6011C38.3871 31.4611 37.1062 31.9336 35.7819 31.9336C34.4576 31.9336 33.1767 31.4611 32.1697 30.6011C31.1627 29.741 30.4956 28.5499 30.2884 27.2419L30.2874 27.2429ZM32.0654 26.304C32.0733 27.0369 32.2978 27.7511 32.7108 28.3567C33.1237 28.9623 33.7066 29.4322 34.386 29.7073C35.0654 29.9824 35.811 30.0503 36.529 29.9026C37.247 29.7548 37.9052 29.398 38.4208 28.877C38.9364 28.3559 39.2863 27.6941 39.4266 26.9746C39.5668 26.2551 39.4911 25.5103 39.2089 24.8337C38.9267 24.1572 38.4508 23.5794 37.8409 23.1729C37.231 22.7663 36.5144 22.5491 35.7814 22.5488C34.7911 22.5552 33.8436 22.9543 33.147 23.6582C32.4504 24.3621 32.0614 25.3136 32.0654 26.304ZM5.60135 26.304C5.60924 27.0369 5.83377 27.7511 6.2467 28.3567C6.65964 28.9623 7.24251 29.4322 7.92194 29.7073C8.60137 29.9824 9.34699 30.0503 10.0649 29.9026C10.7829 29.7548 11.4411 29.398 11.9567 28.877C12.4723 28.3559 12.8223 27.6941 12.9625 26.9746C13.1028 26.2551 13.027 25.5103 12.7449 24.8337C12.4627 24.1572 11.9867 23.5794 11.3768 23.1729C10.7669 22.7663 10.0503 22.5491 9.31733 22.5488C8.3268 22.5549 7.37916 22.9537 6.68231 23.6577C5.98546 24.3617 5.59635 25.3134 5.60034 26.304H5.60135ZM41.2734 25.366H43.1594V19.7478H40.4234C40.3008 19.7473 40.1795 19.7227 40.0665 19.6753C39.9534 19.6279 39.8508 19.5585 39.7645 19.4714C39.6782 19.3843 39.61 19.281 39.5636 19.1675C39.5173 19.054 39.4937 18.9324 39.4944 18.8098V16.9629C39.4941 16.2423 39.7696 15.5488 40.2644 15.0249H33.8854C33.8082 15.0248 33.7312 15.015 33.6564 14.9958C32.9517 14.933 32.2961 14.6081 31.8195 14.0852C31.3429 13.5623 31.0798 12.8794 31.0824 12.1719V7.47192C31.0817 7.34927 31.1052 7.22758 31.1516 7.11401C31.1979 7.00044 31.2661 6.89725 31.3524 6.81006C31.4387 6.72286 31.5413 6.6535 31.6544 6.60596C31.7674 6.55841 31.8887 6.53361 32.0114 6.53296H38.4944C38.1501 6.21428 37.7427 5.97123 37.2987 5.81982C36.8546 5.66842 36.3837 5.61187 35.9164 5.65381H29.2934V25.3618H30.2874C30.4946 24.0538 31.1617 22.8627 32.1687 22.0027C33.1758 21.1426 34.4566 20.6702 35.7809 20.6702C37.1052 20.6702 38.3861 21.1426 39.3931 22.0027C40.4001 22.8627 41.0672 24.0538 41.2744 25.3618L41.2734 25.366ZM14.8093 25.366H27.4364V1.87598H1.88631V25.366H3.82333C4.03053 24.058 4.69763 22.8666 5.70465 22.0066C6.71167 21.1465 7.99253 20.6741 9.31684 20.6741C10.6411 20.6741 11.922 21.1465 12.929 22.0066C13.9361 22.8666 14.6032 24.058 14.8104 25.366H14.8093ZM41.3514 16.9658V17.875H43.1594V16.0278H42.2804C42.0336 16.0294 41.7974 16.1288 41.6235 16.304C41.4496 16.4792 41.3521 16.716 41.3524 16.9629L41.3514 16.9658ZM32.9384 12.1738C32.9373 12.4263 33.0364 12.6691 33.2139 12.8486C33.3914 13.0282 33.6329 13.13 33.8854 13.1318C33.9493 13.1316 34.013 13.1384 34.0754 13.1519H42.6004L39.8344 8.41602H32.9344L32.9384 12.1738ZM33.0314 26.3059C33.0285 25.5734 33.3163 24.8695 33.8316 24.3489C34.347 23.8283 35.0479 23.5333 35.7804 23.5288C36.0292 23.5288 36.2678 23.6278 36.4437 23.8037C36.6196 23.9796 36.7184 24.218 36.7184 24.4668C36.7184 24.7156 36.6196 24.9542 36.4437 25.1301C36.2678 25.306 36.0292 25.4048 35.7804 25.4048C35.6021 25.4032 35.4273 25.4548 35.2782 25.5527C35.1292 25.6507 35.0126 25.7905 34.9432 25.9548C34.8739 26.1191 34.8549 26.3005 34.8887 26.4756C34.9226 26.6507 35.0076 26.8118 35.1332 26.9385C35.2587 27.0651 35.419 27.1516 35.5938 27.187C35.7686 27.2224 35.95 27.2051 36.1149 27.1372C36.2799 27.0693 36.4209 26.9538 36.5201 26.8057C36.6194 26.6575 36.6724 26.4833 36.6724 26.3049C36.6724 26.0587 36.7702 25.8226 36.9443 25.6484C37.1185 25.4743 37.3546 25.3765 37.6009 25.3765C37.8472 25.3765 38.0833 25.4743 38.2575 25.6484C38.4316 25.8226 38.5294 26.0587 38.5294 26.3049C38.5294 27.0343 38.2397 27.7338 37.7239 28.2495C37.2082 28.7652 36.5087 29.0549 35.7794 29.0549C35.05 29.0549 34.3506 28.7652 33.8348 28.2495C33.3191 27.7338 33.0294 27.0343 33.0294 26.3049L33.0314 26.3059ZM6.56732 26.3059C6.5644 25.5734 6.85222 24.8695 7.36759 24.3489C7.88296 23.8283 8.5838 23.5333 9.31635 23.5288C9.56513 23.5288 9.80371 23.6278 9.97962 23.8037C10.1555 23.9796 10.2543 24.218 10.2543 24.4668C10.2543 24.7156 10.1555 24.9542 9.97962 25.1301C9.80371 25.306 9.56513 25.4048 9.31635 25.4048C9.13802 25.4032 8.96321 25.4548 8.81415 25.5527C8.6651 25.6507 8.54851 25.7905 8.47916 25.9548C8.40981 26.1191 8.39084 26.3005 8.42466 26.4756C8.45848 26.6507 8.54356 26.8118 8.6691 26.9385C8.79465 27.0651 8.955 27.1516 9.1298 27.187C9.3046 27.2224 9.48597 27.2051 9.65089 27.1372C9.81581 27.0693 9.95685 26.9538 10.0561 26.8057C10.1554 26.6575 10.2083 26.4833 10.2084 26.3049C10.2084 26.0587 10.3062 25.8226 10.4803 25.6484C10.6544 25.4743 10.8906 25.3765 11.1369 25.3765C11.3831 25.3765 11.6193 25.4743 11.7934 25.6484C11.9675 25.8226 12.0654 26.0587 12.0654 26.3049C12.0654 27.0343 11.7756 27.7338 11.2599 28.2495C10.7442 28.7652 10.0447 29.0549 9.31534 29.0549C8.586 29.0549 7.88652 28.7652 7.37079 28.2495C6.85506 27.7338 6.56534 27.0343 6.56534 26.3049L6.56732 26.3059ZM4.70935 5.65991C4.46057 5.65991 4.22199 5.56116 4.04608 5.38525C3.87017 5.20934 3.77133 4.9707 3.77133 4.72192C3.77133 4.47315 3.87017 4.2345 4.04608 4.05859C4.22199 3.88268 4.46057 3.78394 4.70935 3.78394H24.6094C24.8582 3.78394 25.0967 3.88268 25.2727 4.05859C25.4486 4.2345 25.5474 4.47315 25.5474 4.72192C25.5474 4.9707 25.4486 5.20934 25.2727 5.38525C25.0967 5.56116 24.8582 5.65991 24.6094 5.65991H4.70935Z" fill="#F16D7F"/>
</svg>
